<?xml version="1.0" encoding="UTF-8" standalone="no"?>
<!-- Created with Inkscape (http://www.inkscape.org/) -->

<svg
   width="48"
   height="48"
   viewBox="0 0 48 48"
   version="1.1"
   id="svg1"
   inkscape:version="1.3.2 (091e20ef0f, 2023-11-25, custom)"
   sodipodi:docname="icon.svg"
   xmlns:inkscape="http://www.inkscape.org/namespaces/inkscape"
   xmlns:sodipodi="http://sodipodi.sourceforge.net/DTD/sodipodi-0.dtd"
   xmlns="http://www.w3.org/2000/svg"
   xmlns:svg="http://www.w3.org/2000/svg">
  <sodipodi:namedview
     id="namedview1"
     pagecolor="#505050"
     bordercolor="#eeeeee"
     borderopacity="1"
     inkscape:showpageshadow="0"
     inkscape:pageopacity="0"
     inkscape:pagecheckerboard="0"
     inkscape:deskcolor="#505050"
     inkscape:document-units="px"
     inkscape:zoom="2.8284271"
     inkscape:cx="-13.965359"
     inkscape:cy="26.162951"
     inkscape:window-width="1440"
     inkscape:window-height="836"
     inkscape:window-x="0"
     inkscape:window-y="32"
     inkscape:window-maximized="1"
     inkscape:current-layer="layer1" />
  <defs
     id="defs1">
    <rect
       x="9.7121048"
       y="11.641159"
       width="27.01712"
       height="25.134499"
       id="rect2" />
  </defs>
  <g
     inkscape:label="Layer 1"
     inkscape:groupmode="layer"
     id="layer1">
    <circle
       style="font-variation-settings:normal;opacity:1;fill:#000000;fill-opacity:1;fill-rule:evenodd;stroke:#df7126;stroke-width:2.12976;stroke-linecap:butt;stroke-linejoin:miter;stroke-miterlimit:4;stroke-dasharray:none;stroke-dashoffset:0;stroke-opacity:1;stop-color:#000000;stop-opacity:1"
       id="path1"
       cx="24"
       cy="24"
       r="22.935118" />
    <path
       id="path2"
       style="color:#000000;-inkscape-font-specification:Bravura;display:inline;fill:#df7126;-inkscape-stroke:none"
       d="m 16.081763,8.2696462 c -0.203761,-1e-7 -0.31092,0.062572 -0.419666,0.1208746 -0.108745,0.058303 -0.209312,0.1274194 -0.308298,0.2037212 -0.197973,0.1526036 -0.39086,0.3327036 -0.551405,0.5093032 v 0.00136 h -0.0014 C 13.6317,10.40061 13.300248,12.261648 13.300248,13.794569 c 0,0.824265 0.09857,1.695004 0.198289,2.300692 -2.019367,1.672991 -4.2862957,3.77435 -4.2862957,6.82602 0,1.331982 0.4581368,2.648544 1.4016027,3.633029 0.943466,0.984486 2.368058,1.613472 4.195299,1.613472 0.238946,0 0.482066,-0.03481 0.72389,-0.06383 0.153132,0.880048 0.330028,1.93158 0.330028,2.421567 0,0.923385 -0.272681,1.302701 -0.593508,1.530625 -0.320826,0.227923 -0.770538,0.292001 -1.13269,0.292001 -0.01192,0 -0.01145,-0.004 -0.02309,-0.0041 0.416217,-0.299887 0.78908,-0.735484 0.78908,-1.455928 0,-0.491059 -0.156349,-0.966602 -0.476708,-1.330979 -0.320358,-0.364377 -0.812235,-0.596224 -1.367648,-0.596224 -0.60084,0 -1.129326,0.254009 -1.4763,0.65055 -0.346974,0.396542 -0.521527,0.917119 -0.521527,1.458644 0,0.555 0.16166,1.243529 0.661415,1.81312 0.499757,0.569591 1.333816,0.969713 2.498981,0.969713 0.543625,0 1.326192,-0.111253 2.019557,-0.598941 0.693365,-0.487687 1.237267,-1.383895 1.237267,-2.701344 0,-0.844889 -0.231051,-2.026578 -0.385712,-2.884693 1.470361,-0.655078 2.515278,-1.972658 2.515278,-3.681922 0,-2.016724 -1.535663,-3.825517 -3.812304,-3.861197 L 15.48278,18.328023 c 1.527773,-1.458272 2.738013,-3.322794 2.738013,-5.596902 0,-1.309952 -0.348591,-2.594684 -0.996876,-3.5433921 C 17.098832,9.0042283 16.943544,8.813622 16.779848,8.6499258 16.697998,8.5680779 16.614661,8.4930896 16.519085,8.4258325 16.423505,8.3585755 16.332384,8.2696461 16.081763,8.2696462 Z m 0.21187,3.1699028 c 0.09464,0 0.139725,0.0166 0.202363,0.09507 0.06264,0.07848 0.137174,0.248224 0.137173,0.551405 0,1.02543 -0.803798,1.95894 -1.674589,2.796414 -0.0064,-0.147792 -0.02716,-0.268827 -0.02716,-0.415591 0,-1.015075 0.238334,-1.815251 0.541899,-2.330571 0.303565,-0.515322 0.655612,-0.696727 0.820317,-0.696727 z m -0.824392,6.807006 0.0014,0.0014 c -3.66e-4,-0.0022 -0.0011,0.006 -0.0014,0.0041 z m -0.05297,0.165694 c 0.0032,-0.0035 -0.0071,0.0098 -0.0027,0.0054 l -0.01087,0.01222 c 0.0054,-0.0051 0.0082,-0.01257 0.01358,-0.01766 z m -1.320114,1.060708 0.157544,0.966997 c -1.325466,0.528025 -2.225994,1.730829 -2.225994,3.085698 0,1.431859 0.795297,2.555703 1.944859,2.947168 0.159359,0.05966 0.307447,0.112726 0.543257,0.112725 0.160167,0 0.346946,-0.06038 0.478066,-0.191498 0.127205,-0.127205 0.180016,-0.296918 0.183349,-0.446828 l 0.114084,0.679071 c -0.141183,0.01585 -0.27456,0.03803 -0.426457,0.03803 -1.132617,0 -2.020288,-0.313353 -2.614423,-0.806737 -0.594134,-0.493383 -0.918104,-1.158961 -0.918104,-1.996468 0,-0.76896 0.09511,-1.690477 1.176151,-2.91593 l 0.0014,-0.0014 c 0.621046,-0.693219 1.091893,-1.061301 1.58631,-1.470868 z m 0.556838,3.335596 0.0014,0.01222 c 6.39e-4,0.0025 -0.002,-0.0077 -0.0014,-0.0041 z m 1.681379,0.429173 c 0.620429,0.265721 1.124542,0.779199 1.124542,1.546923 0,0.507362 -0.271712,0.898267 -0.65055,1.216895 z m -1.608039,0.01222 0.44547,2.661958 C 15.158668,25.68511 15.006961,25.485036 14.90018,25.410753 14.788819,25.333283 14.710372,25.30884 14.669296,25.291236 14.267062,25.118851 13.96442,24.678865 13.96442,24.252258 c 0,-0.469819 0.290948,-0.785371 0.761918,-1.002309 z m 2.224636,4.52397 c 0.0088,-0.0046 -0.01038,0.0086 0,0.0041 l -0.01086,0.0054 c 0.005,-0.002 0.0059,-0.0075 0.01086,-0.0095 z m -1.08923,0.30015 c 0.0036,-7.13e-4 0.0072,7.21e-4 0.01087,0 l -0.0068,0.0027 c 0.0024,-4.28e-4 -0.0063,-0.0024 -0.0041,-0.0027 z"
       transform="matrix(1.4380863,0,0,1.4380863,3.2773337,-6.2869961)" />
  </g>
</svg>
